<svg width="23" height="20" viewBox="0 0 23 20" fill="none" xmlns="http://www.w3.org/2000/svg">
<symbol id="plus">
<path d="M12.757 9.25H16.5038C16.9684 9.25 17.345 9.58579 17.345 10C17.345 10.4142 16.9684 10.75 16.5038 10.75H12.757V14.0909C12.757 14.5051 12.3804 14.8409 11.9159 14.8409C11.4514 14.8409 11.0748 14.5051 11.0748 14.0909V10.75H7.32797C6.86343 10.75 6.48685 10.4142 6.48685 10C6.48685 9.58579 6.86343 9.25 7.32797 9.25H11.0748V5.90909C11.0748 5.49488 11.4514 5.15909 11.9159 5.15909C12.3804 5.15909 12.757 5.49488 12.757 5.90909V9.25ZM11.9159 19.75C5.8769 19.75 0.981323 15.3848 0.981323 10C0.981323 4.61522 5.8769 0.25 11.9159 0.25C17.9549 0.25 22.8505 4.61522 22.8505 10C22.8505 15.3848 17.9549 19.75 11.9159 19.75ZM11.9159 18.25C17.0258 18.25 21.1682 14.5563 21.1682 10C21.1682 5.44365 17.0258 1.75 11.9159 1.75C6.80598 1.75 2.66357 5.44365 2.66357 10C2.66357 14.5563 6.80598 18.25 11.9159 18.25Z" />
</symbol>
</svg>
