<svg width="24" height="24" viewBox="0 0 24 24" fill="none" xmlns="http://www.w3.org/2000/svg">
<symbol id="education">
<path d="M15.0368 7.83331C14.5479 7.83331 14.0998 7.95474 13.6924 8.15712C13.122 8.44046 12.4294 8.44046 11.859 8.15712C11.4924 7.95474 11.0442 7.83331 10.5553 7.83331C8.5183 7.83331 6.88867 10.019 6.88867 12.6905C6.88867 15.3619 8.5183 17.5476 10.5553 17.5476C11.0442 17.5476 11.4924 17.4262 11.8998 17.2238C12.4702 16.9405 13.1627 16.9405 13.7331 17.2238C14.1405 17.4262 14.5887 17.5476 15.0776 17.5476C17.1146 17.5476 18.7442 15.3619 18.7442 12.6905C18.7035 10.019 17.0739 7.83331 15.0368 7.83331Z" fill="#FFC857"/>
<path d="M12.0002 20.1905C11.1039 20.1905 10.3706 19.4619 10.3706 18.5714C10.3706 17.681 11.1039 16.9524 12.0002 16.9524H20.7595C20.3521 17.3976 20.1484 17.9643 20.1484 18.5714C20.1484 19.1786 20.3928 19.7452 20.7595 20.1905H12.0002Z" fill="#E2E7EF"/>
<path d="M10.9628 19.5715C10.9628 18.4381 11.8591 17.5477 12.9998 17.5477H4.44426C3.30352 17.5477 2.40723 18.4381 2.40723 19.5715C2.40723 20.7048 3.30352 21.5953 4.44426 21.5953H12.9998C11.8591 21.5953 10.9628 20.7048 10.9628 19.5715Z" fill="#5C2DAE"/>
<path d="M22.5926 20.1905C21.6963 20.1905 20.963 19.4619 20.963 18.5715C20.963 17.681 21.6963 16.9524 22.5926 16.9524C22.837 16.9524 23 16.7905 23 16.5476C23 16.3048 22.837 16.1429 22.5926 16.1429H12H3.44444C2.1 16.1429 1 17.2357 1 18.5715C1 19.9072 2.1 21 3.44444 21H12H22.5926C22.837 21 23 20.8381 23 20.5953C23 20.3524 22.837 20.1905 22.5926 20.1905ZM3.44444 20.1905C2.54815 20.1905 1.81481 19.4619 1.81481 18.5715C1.81481 17.681 2.54815 16.9524 3.44444 16.9524H10.1667C9.75926 17.3976 9.55556 17.9643 9.55556 18.5715C9.55556 19.1786 9.8 19.7453 10.1667 20.1905H3.44444ZM20.7593 20.1905H12C11.1037 20.1905 10.3704 19.4619 10.3704 18.5715C10.3704 17.681 11.1037 16.9524 12 16.9524H20.7593C20.3519 17.3976 20.1481 17.9643 20.1481 18.5715C20.1481 19.1786 20.3926 19.7453 20.7593 20.1905Z" fill="#1E1923"/>
<path d="M14.037 16.9524C13.5074 16.9524 13.0185 16.831 12.5296 16.5881C12.0814 16.3453 11.5111 16.3453 11.1037 16.5881C10.574 16.831 10.0851 16.9524 9.55552 16.9524C7.31478 16.9524 5.48145 14.6048 5.48145 11.6905C5.48145 8.77621 7.31478 6.42859 9.55552 6.42859C10.0851 6.42859 10.574 6.55002 11.0629 6.79287C11.5111 7.03573 12.0814 7.03573 12.4889 6.79287C13.0185 6.55002 13.5074 6.42859 14.037 6.42859C16.2777 6.42859 18.1111 8.77621 18.1111 11.6905C18.1111 14.6048 16.2777 16.9524 14.037 16.9524ZM11.7963 15.5762C12.1629 15.5762 12.5703 15.6572 12.8963 15.8595C13.2629 16.0619 13.6296 16.1429 14.037 16.1429C15.8296 16.1429 17.2963 14.1595 17.2963 11.6905C17.2963 9.22145 15.8296 7.23811 14.037 7.23811C13.6296 7.23811 13.2629 7.31907 12.8963 7.52145C12.2037 7.88573 11.3889 7.88573 10.6963 7.52145C10.3296 7.31907 9.96293 7.23811 9.55552 7.23811C7.76293 7.23811 6.29626 9.22145 6.29626 11.6905C6.29626 14.1595 7.76293 16.1429 9.55552 16.1429C9.96293 16.1429 10.3296 16.0619 10.6963 15.8595C11.0222 15.6976 11.4296 15.5762 11.7963 15.5762Z" fill="#1E1923"/>
<path d="M13.5386 6.3694C13.0749 6.7955 12.4606 7.01682 11.8285 7.00273C11.8118 6.33858 12.0374 5.73234 12.4618 5.31069C12.9243 4.85114 13.5371 4.62617 14.1696 4.64019C14.1925 5.30822 13.9943 5.91474 13.5386 6.3694Z" fill="#FFD681" stroke="#1E1923" stroke-width="0.5"/>
</symbol>
</svg>
