<svg width="24" height="24" viewBox="0 0 24 24" fill="none" xmlns="http://www.w3.org/2000/svg">
<symbol id="gaming" fill="transparent">
<path d="M2.9883 11.8452C5.07401 12.9595 7.27401 13.7024 9.55972 14.0738C10.0454 15.4738 11.3597 16.5024 12.9312 16.5024C14.5026 16.5024 15.8454 15.4738 16.3026 14.0738C18.5597 13.7024 20.7883 12.9595 22.874 11.8452C22.9026 12.1881 22.9312 12.5595 22.9312 12.9309C22.9312 18.4452 18.4454 22.9309 12.9312 22.9309C7.41687 22.9309 2.93115 18.4452 2.93115 12.9309C2.93115 12.5595 2.93115 12.1881 2.9883 11.8452Z" fill="#FFC857"/>
<path d="M3.4165 9.81663C5.35936 10.8452 7.4165 11.5309 9.50222 11.9023C9.93079 10.4166 11.3022 9.33091 12.9308 9.33091C14.5594 9.33091 15.9308 10.4166 16.3594 11.9023C18.4736 11.5309 20.5308 10.8452 22.4451 9.81663C21.1308 5.81663 17.3879 2.90234 12.9308 2.90234C8.47365 2.93092 4.70222 5.81663 3.4165 9.81663Z" fill="#5C2DAE"/>
<path d="M12 22.3931C17.74 22.3931 22.3931 17.7399 22.3931 12C22.3931 6.26002 17.74 1.60687 12 1.60687C6.26008 1.60687 1.60693 6.26002 1.60693 12C1.60693 17.7399 6.26008 22.3931 12 22.3931Z" stroke="#1E1923" stroke-miterlimit="10" stroke-linecap="round" stroke-linejoin="round"/>
<path d="M12.0145 13.4428C12.8035 13.4428 13.4431 12.8032 13.4431 12.0143C13.4431 11.2253 12.8035 10.5857 12.0145 10.5857C11.2255 10.5857 10.5859 11.2253 10.5859 12.0143C10.5859 12.8032 11.2255 13.4428 12.0145 13.4428Z" fill="#EEEDEF"/>
<path d="M12.014 10.5857C11.814 10.5857 11.6426 10.6143 11.4712 10.7C11.9855 10.9 12.3569 11.4143 12.3569 12.0143C12.3569 12.6143 11.9855 13.1286 11.4712 13.3286C11.6426 13.3857 11.814 13.4428 12.014 13.4428C12.814 13.4428 13.4426 12.8143 13.4426 12.0143C13.4426 11.2143 12.7855 10.5857 12.014 10.5857Z" fill="#CECED1"/>
<path d="M21.9287 10.9286C21.843 10.2429 21.9583 10.4314 21.7583 9.80282C19.8441 10.8314 17.5287 11.5595 15.4144 11.931C15.4144 9.35375 13.6144 8.44287 11.9858 8.44287C10.3573 8.44287 8.6144 9.6681 8.55725 11.931C6.44297 11.5595 4.18267 10.6967 2.26838 9.6681C2.06838 10.3252 2.10011 10.2429 2.04297 10.9286C4.10011 12.0429 6.32868 12.7857 8.6144 13.1572C9.10011 14.5572 10.4144 15.5857 11.9858 15.5857C13.5573 15.5857 14.9001 14.5572 15.3573 13.1572C17.643 12.7857 19.8715 12.0429 21.9287 10.9286Z" fill="#1E1923"/>
<path d="M12.0144 14.0145C13.1191 14.0145 14.0146 13.119 14.0146 12.0143C14.0146 10.9096 13.1191 10.014 12.0144 10.014C10.9097 10.014 10.0142 10.9096 10.0142 12.0143C10.0142 13.119 10.9097 14.0145 12.0144 14.0145Z" fill="white"/>
</symbol>
</svg>
