<svg width="24" height="34" viewBox="0 0 24 34" fill="none" xmlns="http://www.w3.org/2000/svg">
<symbol id="logo">
<path d="M10.633 34C6.56014 34 2.48724 32.9137 0.0544434 31.6374L2.73326 25.3642C4.37335 26.3962 8.03622 27.4824 10.387 27.4824C13.3665 27.4824 15.3073 26.0974 15.3073 23.9249C15.3073 21.508 13.1752 20.476 10.2503 19.4441C6.12278 17.9505 0.901824 16.0224 0.901824 9.61342C0.901824 3.88339 5.2754 0 12.9292 0C17.1387 0 20.5282 1.03195 23.0157 2.36262L20.4736 7.98403C19.0795 7.14217 16.1547 6.11022 13.9679 6.11022C11.0431 6.11022 9.34829 7.54952 9.34829 9.50479C9.34829 11.976 11.4804 12.9537 14.3232 13.9856C18.6421 15.5607 23.9178 17.3802 23.9178 23.9521C23.9451 30.0351 19.3802 34 10.633 34Z" fill="#5C2DAE"/>
<path d="M12 28.9217C5.38497 28.9217 0 23.5718 0 16.9999C0 10.4281 5.38497 5.07822 12 5.07822C18.615 5.07822 24 10.4281 24 16.9999C24 23.5718 18.615 28.9217 12 28.9217ZM12 10.6453C8.4738 10.6453 5.60364 13.4968 5.60364 16.9999C5.60364 20.5031 8.4738 23.3817 12 23.3817C15.5262 23.3817 18.3964 20.5303 18.3964 17.0271C18.3964 13.5239 15.5262 10.6453 12 10.6453Z" fill="#FFC857"/>
</symbol>
</svg>
