<svg width="18" height="18" viewBox="0 0 18 18" fill="none" xmlns="http://www.w3.org/2000/svg">
<symbol id="message">
<path d="M16.875 4.5C17.496 4.5 18 5.004 18 5.625V13.5C18 14.121 17.496 14.625 16.875 14.625H14.625V18L11.25 14.625H5.625L7.6815 12.375H14.625C15.246 12.375 15.75 11.871 15.75 11.25V4.5H16.875ZM1.125 0H12.375C12.996 0 13.5 0.504 13.5 1.125V9C13.5 9.621 12.996 10.125 12.375 10.125H6.75L3.375 13.5V10.125H1.125C0.504 10.125 0 9.621 0 9V1.125C0 0.504 0.504 0 1.125 0Z"/>
<symbol>
</svg>
