<svg width="16" height="16" viewBox="0 0 16 16" fill="none" xmlns="http://www.w3.org/2000/svg">
<path fill-rule="evenodd" clip-rule="evenodd" d="M3.40007 1.30352C3.58839 1.1095 3.84726 1 4.11765 1H8C8.55228 1 9 1.44772 9 2L9 10C9 10.2652 8.89464 10.5196 8.70711 10.7071C8.51957 10.8946 8.26522 11 8 11H2C1.44772 11 1 10.5523 1 10V4.18182C1 3.92177 1.1013 3.67195 1.28242 3.48534L3.40007 1.30352ZM4.54063 3L3 4.58732V9H7L7 3H4.54063Z" fill="#575B7B"/>
<path fill-rule="evenodd" clip-rule="evenodd" d="M12 5C12.5523 5 13 5.44772 13 6V14C13 14.2652 12.8946 14.5196 12.7071 14.7071C12.5196 14.8946 12.2652 15 12 15H7C6.44772 15 6 14.5523 6 14C6 13.4477 6.44772 13 7 13H11V6C11 5.44772 11.4477 5 12 5Z" fill="#575B7B"/>
</svg>
