<svg width="16" height="16" viewBox="0 0 16 16" fill="none" xmlns="http://www.w3.org/2000/svg">
<path fill-rule="evenodd" clip-rule="evenodd" d="M12.5451 3.45493C11.9385 2.84834 10.955 2.84834 10.3484 3.45493L8.45395 5.34939C8.45359 5.34975 8.45323 5.35012 8.45287 5.35048C8.0261 5.78047 8.01451 6.06106 8.05371 6.28708C8.11412 6.6354 8.33667 7.02384 8.70919 7.61442C8.72778 7.64389 8.74691 7.67409 8.76648 7.705C9.08074 8.20118 9.50988 8.87875 9.65953 9.61039C9.74564 10.0314 9.7474 10.4908 9.59571 10.9661C9.44557 11.4367 9.16433 11.8627 8.77404 12.251C8.77372 12.2514 8.77339 12.2517 8.77307 12.252L7.06581 13.9593C5.67817 15.3469 3.42837 15.3469 2.04073 13.9593C0.65309 12.5716 0.65309 10.3218 2.04073 8.93418L3.18964 7.78527C3.58017 7.39475 4.21333 7.39475 4.60386 7.78528C4.99438 8.1758 4.99438 8.80897 4.60385 9.19949L3.45494 10.3484C2.84835 10.955 2.84835 11.9385 3.45494 12.545C4.06153 13.1516 5.04501 13.1516 5.6516 12.545L7.36089 10.8358L7.36291 10.8337C7.57517 10.6227 7.65682 10.4633 7.69036 10.3582C7.72248 10.2575 7.72862 10.1506 7.70009 10.0112C7.62979 9.66743 7.3988 9.28577 7.0176 8.68143C7.00962 8.66878 7.00155 8.656 6.9934 8.64309C6.66915 8.1294 6.21997 7.41781 6.08313 6.62886C5.92168 5.698 6.19972 4.78064 7.03517 3.93976L7.03745 3.93747L7.03745 3.93747L8.93419 2.04072L8.93419 2.04071C10.3218 0.653076 12.5716 0.653076 13.9593 2.04071C15.3469 3.42835 15.3469 5.67815 13.9593 7.06578L12.4821 8.54296C12.0916 8.93349 11.4584 8.9335 11.0679 8.54298C10.6774 8.15246 10.6774 7.51929 11.0679 7.12876L12.5451 5.65158L12.5451 5.65157C13.1516 5.04498 13.1516 4.06151 12.5451 3.45493Z" fill="#575B7B"/>
</svg>
